<svg id="Layer_1" xmlns="http://www.w3.org/2000/svg" viewBox="0 0 194.2 194.2"><style>.st0{fill:#c91820}</style><title>loader-outline</title><path class="st0" d="M96.9 2.5c19.9 0 39.3 6.3 55.4 18v20.8h-26.7c-30.7-15.8-68.4-3.8-84.2 26.9-9.4 18.2-9.3 39.8.3 57.9l-10.8-.6-10.9-.6-2-.1-.1 2-.6 10.8-.5 9.4c-27.6-44.2-14.2-102.4 30-130.1 15-9.4 32.4-14.4 50.1-14.4m0-2C43.6.5.5 43.7.5 96.9c0 20.2 6.3 39.8 18.1 56.2l.8-15.4.6-10.8 10.8.6 14.5.8C27.9 99.7 37 62.5 65.6 45.2c18.2-11 40.8-11.7 59.6-1.9h29.2V19.5C137.7 7.1 117.6.5 96.9.5z"/><path class="st0" d="M167.4 34.1c34.9 38.7 31.9 98.4-6.8 133.3-37.1 33.5-93.9 32.3-129.5-2.8l1.2-23.9 21.2 1.2c24.8 24 64.4 23.4 88.4-1.5 22.4-23.2 23.5-59.6 2.6-84.1h22.8l.1-22.2m-2-5v25.4h-25.3c23.9 23.4 24.2 61.7.8 85.6s-61.7 24.2-85.6.8l-.8-.8-24-1.4-1.4 26.8c37.6 37.6 98.7 37.7 136.3 0s37.7-98.7 0-136.4z"/></svg>